/* XPM */
static char * background_xpm[] = {
"80 80 182 2",
"  	c #030303",
". 	c #050505",
"+ 	c #060606",
"@ 	c #040404",
"# 	c #0F0F0F",
"$ 	c #121212",
"% 	c #020202",
"& 	c #080808",
"* 	c #1C1C1C",
"= 	c #151515",
"- 	c #0E0E0E",
"; 	c #070707",
"> 	c #090909",
", 	c #0D0D0D",
"' 	c #262626",
") 	c #161616",
"! 	c #0C0C0C",
"~ 	c #0B0B0B",
"{ 	c #282828",
"] 	c #1F1F1F",
"^ 	c #1D1D1D",
"/ 	c #171717",
"( 	c #222222",
"_ 	c #191919",
": 	c #141414",
"< 	c #050506",
"[ 	c #040405",
"} 	c #232323",
"| 	c #0A0A0A",
"1 	c #040402",
"2 	c #131313",
"3 	c #242424",
"4 	c #191916",
"5 	c #060604",
"6 	c #08070E",
"7 	c #2C2B2F",
"8 	c #2D2D2D",
"9 	c #15141A",
"0 	c #444348",
"a 	c #040403",
"b 	c #030305",
"c 	c #050408",
"d 	c #020201",
"e 	c #1A1A1A",
"f 	c #39393C",
"g 	c #141418",
"h 	c #030304",
"i 	c #101010",
"j 	c #111111",
"k 	c #040305",
"l 	c #030302",
"m 	c #08080A",
"n 	c #040408",
"o 	c #292929",
"p 	c #3C3B3F",
"q 	c #0D0D0F",
"r 	c #111110",
"s 	c #19191A",
"t 	c #050504",
"u 	c #010101",
"v 	c #2C2C2C",
"w 	c #343435",
"x 	c #060605",
"y 	c #383838",
"z 	c #080806",
"A 	c #202020",
"B 	c #212121",
"C 	c #0C0C0D",
"D 	c #111113",
"E 	c #171718",
"F 	c #303030",
"G 	c #3E3E3E",
"H 	c #040406",
"I 	c #181818",
"J 	c #1B1B1D",
"K 	c #272727",
"L 	c #1F1F21",
"M 	c #404040",
"N 	c #313131",
"O 	c #343434",
"P 	c #1B1B1A",
"Q 	c #060608",
"R 	c #060607",
"S 	c #070706",
"T 	c #050407",
"U 	c #28272B",
"V 	c #373639",
"W 	c #050503",
"X 	c #29292A",
"Y 	c #242423",
"Z 	c #080807",
"` 	c #0A0A09",
" .	c #2F2F2D",
"..	c #050508",
"+.	c #040407",
"@.	c #030301",
"#.	c #2B2B2A",
"$.	c #252525",
"%.	c #3F3F40",
"&.	c #565656",
"*.	c #090708",
"=.	c #050606",
"-.	c #090A0A",
";.	c #070405",
">.	c #060505",
",.	c #060807",
"'.	c #191B1A",
").	c #333333",
"!.	c #050404",
"~.	c #06050A",
"{.	c #000004",
"].	c #080809",
"^.	c #09090A",
"/.	c #060509",
"(.	c #0A090C",
"_.	c #0F0F10",
":.	c #04030A",
"<.	c #515055",
"[.	c #060508",
"}.	c #222225",
"|.	c #4E4E50",
"1.	c #0A0A0B",
"2.	c #2A2A2A",
"3.	c #2C2C2D",
"4.	c #09090B",
"5.	c #09090C",
"6.	c #0C0C0E",
"7.	c #050605",
"8.	c #040504",
"9.	c #141416",
"0.	c #515154",
"a.	c #151518",
"b.	c #0F0E14",
"c.	c #070609",
"d.	c #0A0A0C",
"e.	c #2D2D2E",
"f.	c #343437",
"g.	c #55545B",
"h.	c #000002",
"i.	c #484848",
"j.	c #070709",
"k.	c #050507",
"l.	c #373737",
"m.	c #040502",
"n.	c #514F5B",
"o.	c #08070D",
"p.	c #13121A",
"q.	c #1A1A1B",
"r.	c #050502",
"s.	c #040307",
"t.	c #030308",
"u.	c #3E3D43",
"v.	c #363539",
"w.	c #08070B",
"x.	c #3D3C3F",
"y.	c #040309",
"z.	c #040501",
"A.	c #0B0B0A",
"B.	c #3B3B3B",
"C.	c #06060A",
"D.	c #0B0B0C",
"E.	c #2E2E2E",
"F.	c #3A393D",
"G.	c #000003",
"H.	c #070708",
"I.	c #08080B",
"J.	c #232226",
"K.	c #050405",
"L.	c #373739",
"M.	c #262529",
"N.	c #121114",
"O.	c #2B2A2E",
"P.	c #1B1B1B",
"Q.	c #07070A",
"R.	c #0F0F11",
"S.	c #1C1B20",
"T.	c #060507",
"U.	c #0E0E0C",
"V.	c #161615",
"W.	c #0D0D10",
"X.	c #2A292D",
"Y.	c #272728",
"    .                   + . @ @     @   @ + #   @ . .   @ @ @ @ @ @ @   @ @ @ . . @ @ + @ @   @ @ @   $ $ @ @ @ @     + @                 %   . @       @ % %   ",
"  @       @ @ @         @ @ & @     @ * = -       @     @ @ @   @   @     @ @ @ . & ; + @ @       @   . . @     @   @ + = . + @     > , @   . .       % . % %   ",
"@ @ %   %       ; %       @           + >         @ @ @ @ @             + ' @   + & ) .           @   @ @ .   @     @   @ . + @   % @ @ @ @         @         % ",
"@ @     @ ! @ # @ @ @     ~ +     @ @ + {   @       @ @ @ @     . ] @ @ @ . . . @ ~ . @ @   @ @   @ @ , # . @ @   @   @   @ @     ; @     @         @ ;   %     ",
"    %   @ @ @     @   %   & +   + @   @ @       + . @   @ @   @ .   @ , + @ @ @ @ + @   ^ @ @ . @ @ @ @ . . + .   @ @ @   @ @ @   @ % @       %       .   %     ",
"        / @   @           @     .   @   ; @ % @   + ( @ @ @   @ @ .   + @ @ >   ; + @ @ @ @ @ @   . + . _ : @ @ @ @ . @ @   @ . @     @     .     . + .         ",
"%     > + . ! >       .   @ @ . @   @   @ @   > & < [ @ @ + @     @   @ . @ ; @ ; ; @ @   } ! @ | . @     $ ;     @ @ + . +   @ @       @ @ ; @   @ @   @ .   + ",
"    @ @ @   @ . @ @ @ ~ @ @ # + . @   @ @   @ @   . @ 1 . 2 @ @ +       @ @ . @   @ @ @ @ % . + - .   / >   @ @ @ @ - > .   @ @     . .   + @         @         ",
"  @ @ @       - + @ ; > , . 3 % @ @ @ @ @ @ . @   4 5   & @ @ @       @   @ + &   @   @ @ @ . . +   @ (   @ @ @ @ . . . @ @ _ 2 @   @ @       @ ( @     @ @   % ",
"  @                   @ @ .         @ @   @ @     6 7 [ @ @   @     @ @ @ @ @ @   @ @ @   @ #     @ @ > @ @   @ @ @ @ ,     ^ :               . 8 @     @ @   % ",
"@ @       @       @   @   @ @     @ @   @     ; @ 9 0 [ a @ @ @ @   @ @     @ @ @ @ - . @ ~ . . . + @ @ .   @ @ @ @ @ + @ @ + .     b c         @ @ @     @   d ",
"                  @ . +     @ @ @ > > @ @ . @ . @ .   . e @ @ @ . . + @ @   @ @ @ @ + 8 @ @ @ @ . ; & . @   @ @ @ @   @ @ @     @ @ f g   h   @ @ i |     j @ h ",
"@                   @ &   @ .       @ . @ @ @ @ @ @ @ @ ( @ @     @ + @   @     @ @   @   @ @ @ @     ; . . . @ @ + @         @     k h l h % .       >   @ m n ",
"@           @ @       @ @ } @       @ @ @ @ @ @ @ @ . @   @ !   @   . @     @   @ . + @ @ @       .   + + @ @ . @ o @     .   @ ! @ @ l l h           >   a [ p ",
".             @   @ @ @ @ . @ @ @ @         @ @ @ @ @ + | ; ; @ q @ @ r | @   @ + @ . . @ @   @ @ @ @     @ @ @   . @     . @ @ @ @       . @ . - @ @ @   @ @ @ ",
". ! @ @ @       @ @   @ @     @ @ .     @   @ @ @ @ @ @ & . @ @ s @ a t !     @ . @ ;   @ @ @   @ @ @   @ @ @ @ @ @ @ @ . + @ . .   @     @ @ @       @         ",
"    .   u .     @           @ . + v .   @ @ @ @     @ @ @ @ + > w @ l x @ . @ @ . @ . @ + @ @ @ @ @ @ @ @ . @ @ @ @ ; @ @       . & 2 @ @ @ @ @   %             ",
"@     + y , . @   @ @   . ^ ; @   . @ @   @ .   @ , ) @ @ @ . + h     @ @ @   1 l z t @ . . @ @ @ @ . &   . . @   . &       @ @ @ @ @       .       ; .     @   ",
"@   @ +   . ! & @ i @ @ @ . . @ @ + . ;   @ i >   @ . . . @ @ @ @   @ @ @   @ @ a   @ . + + @ . . . . + . @ @   @ ! +   @   @   @ @ @ @     . . .         > . . ",
"  @   @ @ @ + . @ . @ @   @   @ @ @ @     @ A & . . + @ @ @ @ @ @ @ @ @ @     @ @ . , + ; @ ! j . @ @ B @ @   . @ ;   @ @ @ +       @ @ @   . @     %       @ @ ",
"% . +       & ;   @ @ @     @ @ @ ~ i @ 2   . : @ @       @ # @ @ @ @   @   @ C < D E . @ @   . + @ @   @ @ B + ; @   @ @   @ @ ~ @   @ .   + >   . %     @ @   ",
"  +     @ @ @ @ @ @ @ @     @ . @ @ @   # @ @ @ +   @   @   @ @ @ @ . @ @ @ . F @ . @ . @ @   @ @ @ .   @ @ + . $ @   @ . .   @ @ @   @ @ .   @     @ @ @ @ @   ",
"& ; @       @ @ & @ @ @ ) @ @ @ @ j . @ @ + . ; @ @ @ @ @       @   @ @ ! . @ + @ . @ @ @ @ @ @ . @ @ @ . . @ + : . @ @ , !     @ @   @ @ @   % @ @         @ @ ",
"  j   ~ @ .         @ @ & @ @   @ . @ @     ; | @ @ @   ~ @ % @ . + . @ @ @ @ + @ @ @ @ @ @     @     @ @ @ @ @ @ @ . @ @ .   . ( . @ @ @ @     @ . @           ",
"@       @ +   @ @ @ @ . )   ; . . | @ @ @ @ @ @ . A . @ @ @     . . @ @ @ @ - @ @   + . @ . . @ @ @ & . . @ + @ @ @   @   ;   @ . @ @       @ @ . @         @ @ ",
"        @ i j @     @ . 2 . @     @ . e , @   @ @ . .         @ @ @   . + @ + @ @   @ @   @ @     @ . @ . @ ; . @ @   @   . @           @ @ > @   % %       % @ ",
"@ .     @ . @ @       , $ @ @     @ @ | . . - @ @ . + @ . @ @ . ~ A + @ @       @ @ @     @ @ @   @ . @ > . +     @   @ @ @ @         @ | + @         @ @ @     ",
"@     . @     ;   @ ; = ^ @ @ @ . . @ @ @ @ ! + @ @ @ @ + . @ @ ; G + @ @ @ @ @   @ @     @ @ @ @ @ @ @ @ @   @   @ @ @ @   @     @ @     $ < [ h [ @ = . > . & ",
"> @ > +   @ . +     @ @ @ . ;   @ @ @ @ @ @ @ @ @ @ @ @ . # @ & @   .   @ @ @ . ~ @ @   @   @ = + @ @   . @ @ @ @ @   @ @ + @       %     @ b H H h   @ @ j . @ ",
"@ @ @       + .   @   +   @   @ . . @ @ @ @ ; . @ @ @   @ @ @ . @ . @ @ @ @ @ @ @ @ I ;   @ # ^ . @ @ @ @ . @ .   @ @       @ @ - .         H J H [   @         ",
"  @ @ . @ @ @   @ & @     . . + K   @   @ @ . ; @   @   @       @ . @ @ . @     @ @ > + @ @ + & @ @   @ @ . ; { @   @ @ @ @ @ . . @         H L H [   . .   @   ",
"@   @ @ @ . @ . . @ ;   & @ @ + @ @ @   @ . = . @   @ @ @ @ 2 . @ ; . @ @ @ . . @ . @ @ @ + - @ @ @ @ @ @   @ u @ @   @ +   ; > @ @   @ @   @ h @ @ @ + @   @ + ",
"@ @ i @ @ @   @ . . * . 2   @ + > @ @ @ > @ . @ .   @ @ @ + & . . @ @ @ . @ . > @ + @ + @ @ @ @ . . @ . @   @ @ @ @ @ . @ @ > > @     @ .   @   @ @ @       @ @ ",
"  . @ @   @ @ . @ . - + +   + : @ @ @ . @   @ ; @ @ @ @ @ @ @ . & M @ . + @ . . + @ @ @ . @ @ @ . . @ . @ . . @ @ @ @ @ @ @ @ @ j @ @ . @ : . @   @ @       @ + ",
"@ @       @ ; + @ @ @ @ @ > . @ @ @ @ . | @   . @ @ @ @ @ . @ @ .   . @ @ @ @   F @ @ . @ @ @ @ . : @   @ . @ @ @ . ; . @ @ @ @ @ @   @ @ ! @ @ @ @ @   @   > @ ",
"! >     @   . @   @   @ @     @ + ~   @ @ @ @ N . & @ @ @ + @   @   & . @ j + . . @ + @ @ . . @ @ @     @ @ @ @ @ . . . + . @ @ @ @     @   @   @ @ @           ",
"2 , | , @   ( @   @ ; . . +   . : @ @ . @ . . @ @ @   @       @ ; @ @ @ & . @ @ @ : O @ .   @ @ @ @ @ @ @ @ @ @ . @ @ @ . + @ @ @ @ @ @ @ . @ @     @         % ",
"    @ @   @ ! @ @ @ [   ; @ @ + @ . . + . @ | . @ @ + .       . @ @ @ > @ @ @ @ @ + . @     @ . . @ @ @ @ @ @ : _ @ . . @ @ a @ @   a @ @ @ . ; @   @           ",
"'   @   +     @ H . P . . . ; . @ @ + . - @ @ @ + . . @ @ @ @ t > @ @ . @ @ @ @ . @ @ @ @ @ . . . . @ @ . @ @ + + @ . @ < Q m a [ @ R @ @ @ @ @ @   @   @ @ @   ",
". . +   . .   @ H . S @ | . . @ @ . . ; . @ @ @ . @ . @ t . @ < ; @ @ @ @ . @ > . . @ @ . . @ & . . @ @ . @ . . @ @ @ T U V a W @ [ X @ ; @ @ . @ @     @ @ @   ",
"  . @     @   @ [ . Y Z ; @ @ @ . @ @ @ @ @ @ @ @ @ @ . `  .< ... . @ @ @ @ @ @ : ; + @       @ . . @ @ @ @ . +     @ k +.. @.1   [ < @ @     +   ;       @ @   ",
"@   @ @ . + @ @ @ & #.+ + @ @ . ; @ @ @ ; ] - @ @ @ +   $.t %.&.*.@ =.-.@ @ . @ @ @ @   @ @ . @ . . @ @ @ . + @ @ @ @   1 a a l + @ @ . @ @ @ @ @ &     @ @ @   ",
"@   @ @ . + @ @ @ . @ @ . + @ * - @ + + @ @ . @ @ @ ; @ @ . u   ;.>.,.'.. @ @ @ @ . @ . . . + @ . . @ @ @ . ! . @ @ @ @ @ @ @ @ @   @ A @   @ @     @ @ @ @ @   ",
"@ @   @ i @ @ @ @ . @ @ @ + @ + / . . .   @ @ . ; . ).@ @ @ @ . !.@ @ . + @ . @ @ . + 2 ; . @ @ . + @ . @ . . + & @ @ = ~ @ . @ @     @ @   @ @ @ @ @ .   @ @ @ ",
"@ @ @ @ @ @ @ @ @ @ @ @ @ @ @ . | + @ @ @ @ @   > + +   ;   . ! & @ @ . . @ . . @ + ; . . @ @ * @ @   @ @ . . + + @ @ @ + @ . + @ @ @ @ @   @   @ @ | @ + @   @ ",
"  @     @   . . @ @ . @ @ . + + . @ . @ @ . @ @ .   @ @ @ @ + @ . @ @ @ @ @ @ . @ @ . @ . + .   . @ . . @ . @ @ . @ . + $ . @ | @ @ @   @ . @ @ @ ; @   @   @ . ",
"  + @ @ @ @ . . + . . @ @ . . . @ . > @ . @ @ @ . . @ @ @ @ @ . @ @ @ @ @ @ @ @ @ @ @ @ @ . ; . . ; . @ @ @ . @ . .   + . @ @ @ @ @ @   @   . .           @ @   ",
"    @   @ @ + . @ . , @ @ @ @   @ ! _ @ . @ @ @ ; + +     @ @ @ @ > @ @ @ @ . @ @ @ @ @ @ @ @ + ).@ @ . . . . . @ . @ . @ @ @ . @ @ ; @ @ @   @ .   @   + ^ @   ",
"  . )     . . @ @ t ~.{.T @ a h [ ].].@ @ @ + + ^./.(._.a @ . @ @ @ . @ @ @ | @ @ @ . . @ @ @ . ; . @ . . . @ . + @ @ @ @ @ @ @ @   @ @       @ @ @ @   + @ @ @ ",
"@ @ A @ @ @ i [ [ a :.<.[.. a H Q H F ; @ . @ . [ }.|.1.@ . 2.. . @ @ @ @ . @ @ . ( @ @ @ . @ . @ . @ @ @ . @ @ @ @   @ @ @         @ @ @   @ I @ @ @       @ & ",
"@ @ + . @ @ @ @   @ H R @ S x H 3.4.% @ @ + ; @ @ [ < @ + & + @ o . @ @ @ @ * o . @ @ @ . @ @ @ @ .     @ ; + j @ @ @ @ @         @     @   @ @ @ . @ @   @     ",
"@ @ ;   @ @ @ + . [ a 5 1 a . Q 5.6.+ . . @ @ . .   . [ [ ! . @ > . . . ; . . + @ @ @ @ . @ @ @ . . . . @ @ ; j ! @ @ @ . 7.8.@ @ .           @ @ @     + @     ",
"  @   . @ . @ @ @ @ @ @ [ @ . ; . @ ; . ) ^ ..9.H a < 0.a.~ @ @ . @ @ @ . . @ 2 . @ @ ; ~ . . @ ; @ @ @ @ @ ; @ @ @ @ H b.c.[   @ j @ @       @ @ @ @ . @ @ @ @ ",
". @ @ + @ @ @ . + - . @ . + . . I . . + ; < d.e.H . < f.c.. @ @ @ @ @ @ . @ i . ; @ @ . . @ ; ~ . . .   + + . @ . @ @ ..g.h.@ a @ . @ ; @ @   @ @ @ i @ . @ @ @ ",
": . @ @ @ @ . ) i.+ @ . @ @ . + +   . + + < j.k.H + . . ; ; . ; @ . . @ & . + @ @ @ . @   @ . + @ ; + @ @ + . @ @ . . a 1 W a   @ @ @ + .     @   @ @ @       @ ",
"@ . @ @ @ .   ; + @ . @ . ; + @ + .   @ + ; . [ @ @ @ a @ . @ @ @ ^ + @ @ @ . @ # ~ @ ; @ @ @ & @ ; @ @ @ . @ @ @ I l.@ l ^.H + @   j K @ @ @ @     @ @ @       ",
". @ # ^   @ @ . @ . . @ @ . .   ; . @ ; @ @ . . @   @ @ @ . . @ . . @ . + & @   ! | + ; @ . . . @ + . @ @ @ + @ . . . @ @ @ |   @ @ @ . . @ @ + @   @ ; . @ @ @ ",
"@   , $ . @ @ @ . @ . @ @ @ . @ @   . + @ @ . . @ @ @ @ @ . @ . @ . . @ @ . . @ @ @ . @ @ @ @ @   . @ @ @ . & @ @ . @ @ @ @ + @ @     . @   @ . @ @ @   @ @ @ @ ",
"@ @ @ @ + ; @ @ @ . @ @ @ @   ; . @ @ @ . @ @ @ @ . @ @ @ @ . + + @   @ . } . @ . @ . @ @ @ @ @     @ @ + * ; @ @   @ @ @ @ @ @ @ @ . @       @ , @ @ @   . # @ ",
".   @ @ @   @ @ @ @ @ @ @ @   + . @ a   ' a . @ @ @ . .   + . . ; + & @ . . @ . . 2 & + . @ @ @ . @ @ @ . | . . . @ @ @ @ @ @ @     @ @ @ @   @ > @ @   @ @ @ @ ",
"@ @ @ @   ; @ @ @ @ @ @ @ @ + ; . . < m.W < @ . K + + @ @   @ @ @ . . . @ @ @ @ @ | > + . @   ] .   . @ @ . . ; 2 + @ . @ @ @     @ @ @ @   @ . @ @ @ @ @ ; @ @ ",
"; @ . @       @ . @ @ @ @ @ .   @ . n.o.1 @ @ . e & . . . @ @ @ @ @ @ . . @ @ @ . @ . . . @ @ 2 . @ @ . | ~ @ , = # . @ @ @ @ @ @ @ . @ . @ @ . @ @ @ @ . @ . . ",
"@ @ . @ ; i     @   @ . . @ + .   . p.q.t @ -   . . + ; . @ @ @ . . @ & + . @ . . @ 1 - - r.. . ; . . @ @ . @ & + > . @ @ @ @ @ @   . . @ j >   @ @ @ [ H . a   ",
"i @     @ + @ @ . . @ 2 . @ @ @ @   @ # . @ . @ + 2 @ @ @ . @ @ @ . @ . . . @ A @ @ @ +.s.. @ ] + . @ . @ @ @ ; . . . . @ @ @ j     | ^ @ j @ @   @ @ t.u.v.w.  ",
"; +   .     @ @   @ @ N @   @ $.. @ @   @ @ . # . @ @ @ i @ . @ @ @ @ @ . . @ . | ; [ x.y.[ . @ . ; j + + ~ @ @ 2 . @ @ @ ; . ; . @ @ ; @ ~ ; @ j   @ H /.:.T   ",
"+ + . @ @ @ @ @   @ @ @ @ @ @ e . . @ @ @ & + . @ @ . @ . . v   @ @ @ @ @ @ @ @ @ @ @ < m t @ @ . @ @ / . @ [ @ . . . . @ . @ @ @ @ @ ; @ - . . + h @ 1 z.A.@   ",
"@ .   @   . & @ @ @ @ + . @ @ @ @ @ @ @ + B.- @ . . $ . . @ + . @ @ @ . @ @ @ @ @ @ @ @ ! + @ @ @ @ + @ @ [ C.D.t E.I .   @ @ @ @ @   . @ @   + .   @ @ @ > @ @ ",
"( @ @ @ @ . ; + @ @ . . @ . . ( . . . @ @ @ @ @ @ ; ; . @ @ + . @ @ ; . @ . . . . @ @ + + @ @ @ @ + . @ [ +.F.G.h   . . @ @ @ @ @ @     @ @ @ . @ @ @ . > + . . ",
"@ . |     @ , &   @ . . @ @ & + + @ @ @ @ @ . @ . . ; j @ @ + @ @ @ . . @ . . ; _ . @ & + @ @ @ | . @ @ a @ +.@ @ @ + . @ @ @ @ @ + . @ . @ @     @ @   @ . @ - ",
"@ @ > .   + ~ ; + @ . & . . + + @ @ @ ; @ . . . @ @ + @ . @ . . . . @ . S 5 @ . . @ @ @ @ . @ @ @     @   @ < . @ @ @ . . . . . . . @ @ @ . @ @ + +   @ @ .   @ ",
"& @ @ . @ . @ . ; . . @ ; . . . . + . . . . . . @ . . @ . ; @ @ . . + + H.q.@ @ . @ @ @ @ . i @ @ @ @ @   @ @ . @ + @ . . @ @ @ @ @ @   . ^ . @ o @ @ @ @ @ @   ",
"@ @ @ . . @ . > # @ @ . @ @ @ . . - + @ @ . . @ . & . . @ & + . . @ + . I.J.t @ ! ; . @ & $.e @ . . @ @ @ . . . & @ @ > @ @ . . . . @ @ @ @ . . @ . @ + . @ , . ",
"@     @ @ ~ @ @ @ @ @ . @ @ ; + . ; . . - . @ @ . . + @ K.L.+ . . @ @ t U M.. + . . . @ . ~ + @ @ @ . @ @ [ N.O.[ . . + . @ . ~ . @ @ @ . @ @ @ @ @ + : ; @ @ . ",
"@ . @ + P.+ . @ . + . @ . + j + + . . . . . @ @ . . . . < Q.. > @ @ @ + . + . . . @ @ . . . . i . . + + + t R.S.T.. . . . . . ! . . . . @ - . . @ . @ @ @ @ @ . ",
". @ @ + + + @ @ @ . @ . + . + . + + ; . @ . . . . . . + , x . . @ ; ; ; ; - . - + . . - . . + , . + . . . W 5 . . . . & - . . . + . . . @ . | . & . @ @ . . @ . ",
". . . & + . . . . . . + + ; , . . ] 3 ; . + + . . . . + x W . < . + . . . - + & & + . + . | > . + & . @ + R < + & + + + . . . @ ; . . . . . ~ @ ; . . . @ @ @ @ ",
". + + ! ; . > i - + + . + . + + . + U.V.x x + + + . + ; . x > . . @ . x . + + + . . . + . ; & . + ; @ @ . ; ; & > + + . . j & . ; + ; $ ; . @ . + + . . @ . . . ",
"+ > ~ ; ; + > # + . + . + | + . + + + ; + ; + + + + ; ; + . . + + . + H.Q R & + + + + . + & ; + ; ; + ; . + ; + ; . + ; + + + . + & & + ; # . + ; ; . . . . . . ",
"+ j & + & ^ + + & + ; + ; + . + ; . / / 1.; & + + ; K & ; ; ! $ + ; } W.X.R S P.! i ; : + ; j & + & ; > ; ! > + ; + + + + + + . + + . + + + . . ; + + . . . + + ",
"; . . + ~ & & ; + ; ; + + + + + ; ; j.j.Y.m + ; ; ; ; & & + + + + ; ] j.C.R x ; + + ; # + + & + + + + + + ! ; ; ; + & ; ; + + + + . ; & + + + # + . + + + . ; + "};
