/* XPM */
static char * player_xpm[] = {
"80 80 368 2",
"  	c None",
". 	c #379837",
"+ 	c #68A270",
"@ 	c #AA9BD0",
"# 	c #AB8FD9",
"$ 	c #A69DCA",
"% 	c #5A9F5E",
"& 	c #4F9C52",
"* 	c #AE94DA",
"= 	c #AC8FDA",
"- 	c #97A1B2",
"; 	c #9AAAAE",
"> 	c #95A2AE",
", 	c #459B46",
"' 	c #3C993C",
") 	c #AD9ED2",
"! 	c #A695CF",
"~ 	c #93A9A4",
"{ 	c #449B44",
"] 	c #3A993A",
"^ 	c #9EA9B4",
"/ 	c #AC90DA",
"( 	c #AD96D8",
"_ 	c #7AA685",
": 	c #78AA7B",
"< 	c #94AAA6",
"[ 	c #9A98BB",
"} 	c #9887C5",
"| 	c #9669CF",
"1 	c #9769CF",
"2 	c #9A87C6",
"3 	c #9A9EB7",
"4 	c #8BA998",
"5 	c #489C48",
"6 	c #95AAA7",
"7 	c #AD90DB",
"8 	c #469C46",
"9 	c #92A5A5",
"0 	c #947BC5",
"a 	c #966FCD",
"b 	c #9567CE",
"c 	c #9365CE",
"d 	c #9465CE",
"e 	c #9466CE",
"f 	c #966CCD",
"g 	c #9483C1",
"h 	c #B094DC",
"i 	c #4E9E4E",
"j 	c #6FA771",
"k 	c #928BBA",
"l 	c #986FCF",
"m 	c #9364CE",
"n 	c #9161CC",
"o 	c #9262CD",
"p 	c #9568CD",
"q 	c #A686D8",
"r 	c #AB90D7",
"s 	c #9BA4B6",
"t 	c #72A07F",
"u 	c #9192B3",
"v 	c #976ACF",
"w 	c #9575C9",
"x 	c #6EA178",
"y 	c #68A36E",
"z 	c #9889C3",
"A 	c #9CA3B5",
"B 	c #759F85",
"C 	c #9A78CD",
"D 	c #9364CD",
"E 	c #8EA79F",
"F 	c #529F52",
"G 	c #987DCA",
"H 	c #419A41",
"I 	c #8DA3A1",
"J 	c #9263CD",
"K 	c #93A4A8",
"L 	c #77AA78",
"M 	c #9467CE",
"N 	c #70A07E",
"O 	c #95A5AC",
"P 	c #89A69A",
"Q 	c #79A286",
"R 	c #9772CC",
"S 	c #9E9CBC",
"T 	c #93A6A7",
"U 	c #9668CF",
"V 	c #9B7DCD",
"W 	c #7CA28B",
"X 	c #9A72CF",
"Y 	c #3F9A3F",
"Z 	c #62A067",
"` 	c #9567CF",
" .	c #9D80CC",
"..	c #9B8DC4",
"+.	c #885BC0",
"@.	c #7A50B1",
"#.	c #8054B8",
"$.	c #9B9DB8",
"%.	c #81A096",
"&.	c #9060CA",
"*.	c #744AAB",
"=.	c #764CAD",
"-.	c #8256BA",
";.	c #669D72",
">.	c #997EC8",
",.	c #9264CC",
"'.	c #764CAE",
").	c #8458BC",
"!.	c #9B84C9",
"~.	c #88A29A",
"{.	c #8B5EC4",
"].	c #754BAD",
"^.	c #7E53B5",
"/.	c #9164CB",
"(.	c #9566CF",
"_.	c #9770CD",
":.	c #59A159",
"<.	c #967FC5",
"[.	c #875BBF",
"}.	c #764BAD",
"|.	c #8558BD",
"1.	c #9365CD",
"2.	c #9775CB",
"3.	c #71AA71",
"4.	c #77AB78",
"5.	c #8A5EC3",
"6.	c #8155B8",
"7.	c #9062CA",
"8.	c #9469CD",
"9.	c #989AB6",
"0.	c #9590BA",
"a.	c #9163CB",
"b.	c #784DB0",
"c.	c #8054B7",
"d.	c #9C89C7",
"e.	c #8BAB98",
"f.	c #67A36B",
"g.	c #60A165",
"h.	c #74A67B",
"i.	c #88A895",
"j.	c #89AA95",
"k.	c #6DA473",
"l.	c #3B983D",
"m.	c #9670CC",
"n.	c #875BC0",
"o.	c #754BAC",
"p.	c #9365CC",
"q.	c #9972D0",
"r.	c #6DA177",
"s.	c #85AD8D",
"t.	c #895CC2",
"u.	c #7A4FB0",
"v.	c #754BAB",
"w.	c #7D52B5",
"x.	c #9161CD",
"y.	c #6AA174",
"z.	c #9B8EC2",
"A.	c #8F62C8",
"B.	c #8D5FC5",
"C.	c #9E93C4",
"D.	c #9468CD",
"E.	c #8F62C9",
"F.	c #8055B8",
"G.	c #8559BE",
"H.	c #6CA077",
"I.	c #76A67D",
"J.	c #784EAF",
"K.	c #7B50B2",
"L.	c #8E61C8",
"M.	c #9871CE",
"N.	c #449B43",
"O.	c #9E9BBE",
"P.	c #784EB0",
"Q.	c #8256B9",
"R.	c #91A7A1",
"S.	c #499C49",
"T.	c #966BCE",
"U.	c #774CAE",
"V.	c #7C51B4",
"W.	c #8D5FC6",
"X.	c #8D8FAD",
"Y.	c #479B49",
"Z.	c #629D6D",
"`.	c #7A4FB2",
" +	c #774DAF",
".+	c #9264CB",
"++	c #8F61C7",
"@+	c #7A57AD",
"#+	c #599F5C",
"$+	c #8D60C6",
"%+	c #764CAC",
"&+	c #8C8FA9",
"*+	c #9D81CD",
"=+	c #8C5FC6",
"-+	c #7D52B4",
";+	c #9568CE",
">+	c #7449AC",
",+	c #8B94A6",
"'+	c #5C9D63",
")+	c #9363CD",
"!+	c #8357BB",
"~+	c #9063CA",
"{+	c #8366B1",
"]+	c #8982AD",
"^+	c #73918A",
"/+	c #7A9D8E",
"(+	c #87AE8C",
"_+	c #9B95BD",
":+	c #9876CB",
"<+	c #966ACE",
"[+	c #774DAD",
"}+	c #9186BC",
"|+	c #75998B",
"1+	c #8C5DC6",
"2+	c #89A29C",
"3+	c #9B91C1",
"4+	c #8257BA",
"5+	c #81A28F",
"6+	c #70A676",
"7+	c #8358BC",
"8+	c #82959C",
"9+	c #928FB8",
"0+	c #9265CC",
"a+	c #7C51B3",
"b+	c #8156B9",
"c+	c #8B5EC3",
"d+	c #7954AE",
"e+	c #76A77D",
"f+	c #774DAE",
"g+	c #754CAC",
"h+	c #865ABE",
"i+	c #9567D0",
"j+	c #7B51B3",
"k+	c #8069AF",
"l+	c #967FC6",
"m+	c #9466CF",
"n+	c #8659BE",
"o+	c #847FA9",
"p+	c #778E92",
"q+	c #9999B7",
"r+	c #9163CC",
"s+	c #8358BB",
"t+	c #9466CD",
"u+	c #8C5FC5",
"v+	c #7F54B7",
"w+	c #794FB1",
"x+	c #774CAD",
"y+	c #8A5DC3",
"z+	c #82999C",
"A+	c #96A1AC",
"B+	c #60A360",
"C+	c #4D9C51",
"D+	c #8CA99A",
"E+	c #9F9BBF",
"F+	c #9C8FC4",
"G+	c #9E9CBD",
"H+	c #8DAA9B",
"I+	c #419945",
"J+	c #559D59",
"K+	c #9D8AC7",
"L+	c #895DC1",
"M+	c #9C99BC",
"N+	c #9992BF",
"O+	c #9678C9",
"P+	c #9A92BF",
"Q+	c #9A9EB8",
"R+	c #9B95BF",
"S+	c #9676CA",
"T+	c #8B5FC4",
"U+	c #865BBF",
"V+	c #639C6F",
"W+	c #5FA35F",
"X+	c #9673CB",
"Y+	c #7E52B5",
"Z+	c #8F61C9",
"`+	c #8156BA",
" @	c #9F94C3",
".@	c #369736",
"+@	c #439A45",
"@@	c #9976CB",
"#@	c #885CC0",
"$@	c #784DAF",
"%@	c #619D6B",
"&@	c #97A0B2",
"*@	c #865ABF",
"=@	c #744BAC",
"-@	c #9A97BC",
";@	c #589F5A",
">@	c #9568CF",
",@	c #764BAC",
"'@	c #8C5FC4",
")@	c #794EB0",
"!@	c #8458BD",
"~@	c #956ACD",
"{@	c #4D9E4E",
"]@	c #6D9B80",
"^@	c #7A4FB1",
"/@	c #8AA898",
"(@	c #8A9FA0",
"_@	c #8055B9",
":@	c #7B50B3",
"<@	c #958ABE",
"[@	c #8D9FA5",
"}@	c #7F53B6",
"|@	c #8E60C7",
"1@	c #987CC9",
"2@	c #7D9D93",
"3@	c #9163CA",
"4@	c #9A75CD",
"5@	c #5CA25C",
"6@	c #639B71",
"7@	c #8A5DC2",
"8@	c #9A73D0",
"9@	c #68A46D",
"0@	c #9D7BCE",
"a@	c #9263CB",
"b@	c #885CC1",
"c@	c #8F61C8",
"d@	c #9C7DCD",
"e@	c #62A168",
"f@	c #78A286",
"g@	c #9364CC",
"h@	c #8C5EC5",
"i@	c #829D95",
"j@	c #9799B6",
"k@	c #885BC1",
"l@	c #8559BD",
"m@	c #8D89AE",
"n@	c #9194B3",
"o@	c #897DB0",
"p@	c #7AAC7E",
"q@	c #936CCA",
"r@	c #8459BD",
"s@	c #958BBF",
"t@	c #75AB75",
"u@	c #857BAB",
"v@	c #8C88AF",
"w@	c #8071AB",
"x@	c #9367CC",
"y@	c #998BC3",
"z@	c #8BAC96",
"A@	c #867AAC",
"B@	c #764DAD",
"C@	c #7C9C8E",
"D@	c #7E879E",
"E@	c #754AAC",
"F@	c #81AA8A",
"G@	c #3F9842",
"H@	c #5EA064",
"I@	c #79A780",
"J@	c #87AB92",
"K@	c #94A9A7",
"L@	c #7E4FB6",
"M@	c #7B56AE",
"N@	c #6CA471",
"O@	c #83A98C",
"P@	c #7E5FB0",
"Q@	c #86A497",
"R@	c #856DB2",
"S@	c #8F96AA",
"T@	c #549E57",
"U@	c #599F5D",
"V@	c #73948A",
"W@	c #7347AB",
"X@	c #529D56",
"Y@	c #828BA1",
"Z@	c #7954AD",
"`@	c #759C86",
". . . . . . . . . . . . . . . . . . . . . . . . . . . . . . . . . . . . . . . . . . . . . . . . . . . . . . . . . . . . . . . . . . . . . . . . . . . . . . . . ",
". . . . . . . . . . . . . . . . . . . . . . . . . . . . . . . . . . . . . . . . . . . . . . . . . . . . . . . . . . . . . . . . . . . . . . . . . . . . . . . . ",
". . . . . . . . . . . . . . . . . . . . . . . . . . . . . . . . . . . . . . . . . . . . . . . . . . . . . . . . . . . . . . . . . . . . . . . . . . . . . . . . ",
". . . . . . . . . . . . . . . . . . . . . . . . . . . . . . . . . . . . . . . . . . . . . . . . . . . . . . . . . . . . . . . . . . . . . . . . . . . . . . . . ",
". . . . . . . . . . . . . . . . . . . . . . . . . . . . . . . . . . . . . . . . . . . . . . . . . . . . . . . . . + @ # $ % . . . . . . . . . . . . . . . . . . ",
". . . . . . . . . . . . . . . . . . . . . . . . . . . . . . . . . . . . . . . . . . . . . . . . . . . . . . . . & * = = = - . . . . . . . . . . . . . . . . . . ",
". . . . . . . . . . . . . . . . . . . . . . . . . . . . . . . . . . . . . . . . . . . . . . . . . . . . . . . . ; = = = = > . . . . , ' . . . . . . . . . . . . ",
". . . . . . . . . . . . . . . . . . . . . . . . . . . . . . . . . . . . . . . . . . . . . . . . . . . . . . . . ) = = ! ~ { . . ] ^ / ( _ . . . . . . . . . . . ",
". . . . . . . . . . . . . . . . . . . . . . . . . . . . . . . . . . . . . . . . . . . . . . . . . . . . : < [ } | 1 1 2 3 4 5 . 6 = = = 7 8 . . . . . . . . . . ",
". . . . . . . . . . . . . . . . . . . . . . . . . . . . . . . . . . . . . . . . . . . . . . . . ' 9 0 a b c d e e e e e d d f g # = = = h i . . . . . . . . . . ",
". . . . . . . . . . . . . . . . . . . . . . . . . . . . . . . . . . . . . . . . . . . . . . j k l m e e e e e e e n o e e e e e p q r s t . . . . . . . . . . . ",
". . . . . . . . . . . . . . . . . . . . . . . . . . . . . . . . . . . . . . . . . . . . i u v c e e e e e e e e w x y z c e e e e d A . . . . . . . . . . . . . ",
". . . . . . . . . . . . . . . . . . . . . . . . . . . . . . . . . . . . . . . . . . . B C m e e e e e e e e e D E . . F | e e e e e G H . . . . . . . . . . . . ",
". . . . . . . . . . . . . . . . . . . . . . . . . . . . . . . . . . . . . . . . . . I d e e e e e e e e e e e J K . . L M e e e e e d N . . . . . . . . . . . . ",
". . . . . . . . . . . . . . . . . . . . . . . . . . . . . . . . . . . . . . . . . O c e e e e e e e e e e e e e p P Q R e e e e e e e S . . . . . . . . . . . . ",
". . . . . . . . . . . . . . . . . . . . . . . . . . . . . . . . . . . . . . . . T d e e e e e e e e e e e e e e e U e e e e e e e e e V . . . . . . . . . . . . ",
". . . . . . . . . . . . . . . . . . . . . . . . . . . . . . . . . . . . . . . W c e e e e e e e e e e e e e e e e e e e e e e e e e e X Y . . . . . . . . . . . ",
". . . . . . . . . . . . . . . . . . . . . . . . . . . . . . . . . . . . . . Z | ` e e e e e e e e e e e e e e e e e e e e e e e e e e  .. . . . . . . . . . . . ",
". . . . . . . . . . . . . . . . . . . . . . . . . . . . . . . . . . . . . . ..+.@.#.e e e e e e e e e e e e e e e e e e e e e e e e e $.. . . . . . . . . . . . ",
". . . . . . . . . . . . . . . . . . . . . . . . . . . . . . . . . . . . . %.&.*.=.=.-.e e e e e e e e e e e e e e e e e e e e e e e c ;.. . . . . . . . . . . . ",
". . . . . . . . . . . . . . . . . . . . . . . . . . . . . . . . . . . . . >.,.'.=.=.=.).e e e e e e e e e e e e e e e e e e e e e e !.' . . . . . . . . . . . . ",
". . . . . . . . . . . . . . . . . . . . . . . . . . . . . . . . . . . . ~.o e {.].=.=.=.^./.(.e e e e e e e e e e e e e e e e e e _.:.. . . . . . . . . . . . . ",
". . . . . . . . . . . . . . . . . . . . . . . . . . . . . . . . . . . . <.e e (.[.=.=.=.=.}.|.1.e e e e e e e e e e e e e e e d 2.3.. . . . . . . . . . . . . . ",
". . . . . . . . . . . . . . . . . . . . . . . . . . . . . . . . . . . 4.b e e e e 5.=.=.=.=.=.=.6.7.e e e e e e M b M e e M 8.9.. . . . . . . . . . . . . . . . ",
". . . . . . . . . . . . . . . . . . . . . . . . . . . . . . . . . . . 0.c e e e e e a.b.=.=.=.=.=.=.c.e e D d.e.f.g.h.i.j.k.l.. . . . . . . . . . . . . . . . . ",
". . . . . . . . . . . . . . . . . . . . . . . . . . . . . . . . . . . m.e e e e e e e e n.=.=.=.=.=.o.p.q.r.. . . . . . . . . . . . . . . . . . . . . . . . . . ",
". . . . . . . . . . . . . . . . . . . . . . . . . . . . . . . . . . s.e e e e e e e e e e p.t.u.v.v.w.x.y.. . . . . . . . . . . . . . . . . . . . . . . . . . . ",
". . . . . . . . . . . . . . . . . . . . . . . . . . . . . . . . . . z.e ` e e e e e e e e e e e A.B.1.C.. . . . . . . . . . . . . . . . . . . . . . . . . . . . ",
". . . . . . . . . . . . . . . . . . . . . . . . . . . . . . . . . l.D.E.F.G.e e e e e e e e e e e e c H.. . . . . . . . . . . . . . . . . . . . . . . . . . . . ",
". . . . . . . . . . . . . . . . . . . . . . . . . . . . . . . . . I.b J.=.=.K.L.` e e e e e e e e e M.N.. . . . . . . . . . . . . . . . . . . . . . . . . . . . ",
". . . . . . . . . . . . . . . . . . . . . . . . . . . . . . . . . O.e P.=.=.=.o.Q.,.e e e e e e e e R.. . . . . . . . . . . . . . . . . . . . . . . . . . . . . ",
". . . . . . . . . . . . . . . . . . . . . . . . . . . . . . . . S.T.e 5.U.=.=.=.=.=.V.W.1.e e e e e X.Y.. . . . . . . . . . . . . . . . . . . . . . . . . . . . ",
". . . . . . . . . . . . . . . . . . . . . . . . . . . . . . . . Z.c e e ,.`.=.=.=.=.=.=.=. +w..+e ++=.@+#+. . . . . . . . . . . . . . . . . . . . . . . . . . . ",
". . . . . . . . . . . . . . . . . . . . . . . . . . . . . . . . K e e e e e $+P.%+=.=.=.=.=.=.w.(.c.=.=.&+. . . . . . . . . . . . . . . . . . . . . . . . . . . ",
". . . . . . . . . . . . . . . . . . . . . . . . . . . . . . . . *+e e e e e e 1.=+-+].o.=.=.=.V.;+=.=.>+,+. . . . . . . . . . . . . . . . . . . . . . . . . . . ",
". . . . . . . . . . . . . . . . . . . . . . . . . . . . . . . '+)+e e e e e e e e ` /.{.!+-+^.~+a.{+]+^+] . . . . . . . . . . . . . . . . . . . . . . . . . . . ",
". . . . . . . . . . . . . . . . . . . . . . . . . . . . . . . /+c e e e e e e e e e e e (.` ` c (+. . . . . . . . . . . . . . . . . . . . . . . . . . . . . . . ",
". . . . . . . . . . . . . . . . . . . . . . . . . . . . . . . _+1.A.1.e e e e e e e e e e e e :+. . . . . . . . . . . . . . . . . . . . . . . . . . . . . . . . ",
". . . . . . . . . . . . . . . . . . . . . . . . . . . . . . F <+[+v.J.,.e e e e e e e e e e d }+. . . . . . . . . . . . . . . . . . . . . . . . . . . . . . . . ",
". . . . . . . . . . . . . . . . . . . . . . . . . . . . . . |+1+%+=.=.U.E.e e e e e e e e e J 2+. . . . . . . . . . . . . . . . . . . . . . . . . . . . . . . . ",
". . . . . . . . . . . . . . . . . . . . . . . . . . . . . . 3+.+].=.=.=.=.4+(.e e e e e e e m 5+. . . . . . . . . . . . . . . . . . . . . . . . . . . . . . . . ",
". . . . . . . . . . . . . . . . . . . . . . . . . . . . . 6+d e /.U.=.=.=.=.J.7+.+` e e e e A.o.8+. . . . . . . . . . . . . . . . . . . . . . . . . . . . . . . ",
". . . . . . . . . . . . . . . . . . . . . . . . . . . . . 9+d e e 0+a+=.=.=.=.=.=.K.b+c+e e G.=.d+{ . . . . . . . . . . . . . . . . . . . . . . . . . . . . . . ",
". . . . . . . . . . . . . . . . . . . . . . . . . . . . e+| e e e e ` +.f+g+=.=.=.=.=.o.h+i+j+>+k+. . . . . . . . . . . . . . . . . . . . . . . . . . . . . . . ",
". . . . . . . . . . . . . . . . . . . . . . . . . . . . l+m+e e e e e e 1.n+J.v.=.=.=.=.K.a o+p+i . . . . . . . . . . . . . . . . . . . . . . . . . . . . . . . ",
". . . . . . . . . . . . . . . . . . . . . . . . . . . q+r+s+n.t+e e e e e e (.u+v+w+x+%+y+z+. . . . . . . . . . . . . . . . . . . . . . . . . . . . . . . . . . ",
". . . . . . . . . . . . . . . . . . . . . . . . . ] A+m+V.=.%+c.e e e e e e e e e ` 1.e e B+. . . . . . . . . . . . . . . . . . . . . . . . . . . . . . . . . . ",
". . . . . . . . . . . . C+D+E+F+G+H+I+] . . . ' J+K+e ` K.=.=.=.L+e e e e e e e e e e e M+. . . . . . . . . . . . . . . . . . . . . . . . . . . . . . . . . . . ",
". . . . . . . . . . . N+p e e e e e 8.O+P+Q+R+S+;+e e e T+o.=.=.=.U+e e e e e e e e e o V+. . . . . . . . . . . . . . . . . . . . . . . . . . . . . . . . . . . ",
". . . . . . . . . W+X+d e e e E.Y+).e e d d e Z+a+`+e e e ).g+=.=.=.^.e e e e e e e e  @. . . . . . . . . . . .@.@. . . . . . . . . . . . . . . . . . . . . . . ",
". . . . . . . . +@@@e e e e 0+f+=.%+#@e e e 1.$@=.%+#@e e e -.g+=.=.=.$@U+e (.e e e J %@. . . . . . . . . . . .@.@. . . . . . . . . . . . . . . . . . . . . . . ",
". . . . . . . . &@e e e e ` -.=.=.=.*@e e e 1.=@=.=.-.e e e e G.].=.=.=.o.[+`+1.e e -@. . . . . . . . . . . . .@.@. . . . . . . . . . . . . . . . . . . . . . . ",
". . . . . . . ;@>@e e e e /.,@=.=.f+d e e e 1.=.=.=.F.e e e e (.'@)@=.=.=.=.o.!@e ~@{@. . . . . . . . . . . . .@.@. . . . . . . . . . . . . . . . . . . . . . . ",
". . . . . . . ]@D e e e e G.=.=.=.'@e e e e ` ^@=.=.)@e e e e e e e -.$@g+=.o.).e /@. . . . . . . . . . . . . . . . . . . . . . . . . . . . . . . . . . . . . . ",
". . . . . . . (@e e e e ` a+=.=.J.` e e e e ` _@=.=.o.1.e e e e e e e 1.+.:@c.c <@. . . . . . . . . . . . . . . . . . . . . . . . . . . . . . . . . . . . . . . ",
". . . . . . . [@e e e e (.x+=.=.}@e e e e e e t.=.=.=.|@e e e e e e e e e e e 1@. . . . . . . . . . . . . . . . . . . . . . . . . . . . . . . . . . . . . . . . ",
". . . . . . . 2@c e e e .+o.=.%+G.e e e e e e 3@o.=.=.Y+e e e e e e e e e e 4@5@. . . . . . . . . . . . . . . . . . . . . . . . . . . . . . . . . . . . . . . . ",
". . . . . . . 6@J e e e ~+o.=.o.7@e e e e e e e w.=.=.=.$+e e e e e e e e 8@9@. . . . . . . . . . . . . . . . . . . . . . . . . . . . . . . . . . . . . . . . . ",
". . . . . . . ' 0@e e e a@o.=.o.b@e e e e e e e c@=.=.=. +/.e e e e e e d@e@. . . . . . . . . . . . . . . . . . . . . . . . . . . . . . . . . . . . . . . . . . ",
". . . . . . . . f@J e e g@=.=.%+6.e e e e e e e e c.=.=.=.).m+e e e m+h@i@. . . . . . . . . . . . . . . . . . . . . . . . . . . . . . . . . . . . . . . . . . . ",
". . . . . . . . . j@c e ` u.=.=.:@e e e e e e e e e )@%+o.k@e e e d l@o.m@. . . . . . . . . . . . . . . . . . . . . . . . . . . . . . . . . . . . . . . . . . . ",
". . . . . . . . . . n@>@m+-.o.g+}@e e e e e e e e e .+-.G.e c >@h@w+=.=.o@. . . . . . . . . . . . . . . . . . . . . . . . . . . . . . . . . . . . . . . . . . . ",
". . . . . . . . . . . p@q@e r@!+` e e e e e e e e e e e d a s@t@u@}.=.=.v@. . . . . . . . . . . . . . . . . . . . . . . . . . . . . . . . . . . . . . . . . . . ",
". . . . . . . . . . . . w@U.Q.c@x@8.M e e e e e e e 1.y@z@] . . Y A@B@].C@. . . . . . . . . . . . . . . . . . . . . . . . . . . . . . . . . . . . . . . . . . . ",
". . . . . . . . . . . . D@E@=.}.F@G@H@I@J@K@L@w.^@P.M@8 . . . . . ] N@O@. . . . . . . . . . . . . . . . . . . . . . . . . . . . . . . . . . . . . . . . . . . . ",
". . . . . . . . . . . . 5@P@}.Q@. . . . . . R@=.=.=.S@. . . . . . . . . . . . . . . . . . . . . . . . . . . . . . . . . . . . . . . . . . . . . . . . . . . . . ",
". . . . . . . . . . . . . T@U@. . . . . . . V@W@=.o.X@. . . . . . . . . . . . . . . . . . . . . . . . . . . . . . . . . . . . . . . . . . . . . . . . . . . . . ",
". . . . . . . . . . . . . . . . . . . . . . . Y@Z@`@. . . . . . . . . . . . . . . . . . . . . . . . . . . . . . . . . . . . . . . . . . . . . . . . . . . . . . ",
". . . . . . . . . . . . . . . . . . . . . . . . . . . . . . . . . . . . . . . . . . . . . . . . . . . . . . . . . . . . . . . . . . . . . . . . . . . . . . . . ",
". . . . . . . . . . . . . . . . . . . . . . . . . . . . . . . . . . . . . . . . . . . . . . . . . . . . . . . . . . . . . . . . . . . . . . . . . . . . . . . . ",
". . . . . . . . . . . . . . . . . . . . . . . . . . . . . . . . . . . . . . . . . . . . . . . . . . . . . . . . . . . . . . . . . . . . . . . . . . . . . . . . ",
". . . . . . . . . . . . . . . . . . . . . . . . . . . . . . . . . . . . . . . . . . . . . . . . . . . . . . . . . . . . . . . . . . . . . . . . . . . . . . . . ",
". . . . . . . . . . . . . . . . . . . . . . . . . . . . . . . . . . . . . . . . . . . . . . . . . . . . . . . . . . . . . . . . . . . . . . . . . . . . . . . . ",
". . . . . . . . . . . . . . . . . . . . . . . . . . . . . . . . . . . . . . . . . . . . . . . . . . . . . . . . . . . . . . . . . . . . . . . . . . . . . . . . ",
". . . . . . . . . . . . . . . . . . . . . . . . . . . . . . . . . . . . . . . . . . . . . . . . . . . . . . . . . . . . . . . . . . . . . . . . . . . . . . . . ",
". . . . . . . . . . . . . . . . . . . . . . . . . . . . . . . . . . . . . . . . . . . . . . . . . . . . . . . . . . . . . . . . . . . . . . . . . . . . . . . . ",
". . . . . . . . . . . . . . . . . . . . . . . . . . . . . . . . . . . . . . . . . . . . . . . . . . . . . . . . . . . . . . . . . . . . . . . . . . . . . . . . ",
". . . . . . . . . . . . . . . . . . . . . . . . . . . . . . . . . . . . . . . . . . . . . . . . . . . . . . . . . . . . . . . . . . . . . . . . . . . . . . . . ",
". . . . . . . . . . . . . . . . . . . . . . . . . . . . . . . . . . . . . . . . . . . . . . . . . . . . . . . . . . . . . . . . . . . . . . . . . . . . . . . . ",
". . . . . . . . . . . . . . . . . . . . . . . . . . . . . . . . . . . . . . . . . . . . . . . . . . . . . . . . . . . . . . . . . . . . . . . . . . . . . . . . "};
